<svg xmlns="http://www.w3.org/2000/svg" width="50" height="53.333" viewBox="0 0 50 53.333">
    <g id="download" transform="translate(-16)">
        <g id="Сгруппировать_519" data-name="Сгруппировать 519" transform="translate(27.666)">
            <g id="Сгруппировать_518" data-name="Сгруппировать 518" transform="translate(0)">
                <path id="Контур_382" data-name="Контур 382" d="M154.515,24.31A1.662,1.662,0,0,0,153,23.333h-6.667V1.667A1.667,1.667,0,0,0,144.665,0H138a1.667,1.667,0,0,0-1.667,1.667V23.333h-6.667a1.666,1.666,0,0,0-1.253,2.763L140.078,39.43a1.663,1.663,0,0,0,2.507,0L154.252,26.1A1.662,1.662,0,0,0,154.515,24.31Z" transform="translate(-127.998 0)" fill="#ffad1b"/>
            </g>
        </g>
        <g id="Сгруппировать_521" data-name="Сгруппировать 521" transform="translate(16 36.667)">
            <g id="Сгруппировать_520" data-name="Сгруппировать 520" transform="translate(0)">
                <path id="Контур_383" data-name="Контур 383" d="M59.333,352v10H22.667V352H16v13.333a3.332,3.332,0,0,0,3.333,3.333H62.667A3.33,3.33,0,0,0,66,365.333V352Z" transform="translate(-16 -352)" fill="#ffad1b"/>
            </g>
        </g>
    </g>
</svg>
