<svg id="request" xmlns="http://www.w3.org/2000/svg" width="53.33" height="53.33" viewBox="0 0 53.33 53.33">
    <path d="M38.126,0H1.562A1.562,1.562,0,0,0,0,1.562V51.768A1.562,1.562,0,0,0,1.562,53.33H38.126a1.562,1.562,0,0,0,1.562-1.562V1.562A1.562,1.562,0,0,0,38.126,0ZM16.4,30.586l-4.746,4.746a1.562,1.562,0,0,1-2.209,0L7.211,33.1a1.562,1.562,0,1,1,2.21-2.21l1.132,1.132,3.641-3.641a1.562,1.562,0,1,1,2.21,2.21Zm0-9.479-4.746,4.746a1.562,1.562,0,0,1-2.209,0L7.211,23.616a1.562,1.562,0,0,1,2.21-2.21l1.132,1.132L14.193,18.9a1.562,1.562,0,0,1,2.21,2.21Zm0-9.479-4.746,4.746a1.562,1.562,0,0,1-2.209,0L7.211,14.137a1.562,1.562,0,0,1,2.21-2.21l1.132,1.132,3.641-3.641a1.562,1.562,0,0,1,2.21,2.21ZM31.294,43.766H21.372a1.562,1.562,0,1,1,0-3.125h9.922a1.562,1.562,0,1,1,0,3.125Zm0-9.842H21.372a1.562,1.562,0,1,1,0-3.125h9.922a1.562,1.562,0,1,1,0,3.125Zm0-9.479H21.372a1.562,1.562,0,1,1,0-3.125h9.922a1.562,1.562,0,1,1,0,3.125Zm0-9.479H21.372a1.562,1.562,0,1,1,0-3.125h9.922a1.562,1.562,0,1,1,0,3.125Z" transform="translate(0 0)" fill="#ffad1b"/>
    <path d="M420.783,5.3a5.3,5.3,0,0,0-10.606,0V9.885h10.606Z" transform="translate(-367.453 0)" fill="#ffad1b"/>
    <path d="M410.27,390.841a1.562,1.562,0,0,0,.049,1.183l3.741,8.15a1.562,1.562,0,0,0,2.84,0l3.741-8.15a1.562,1.562,0,0,0,.049-1.183l-.96-2.652h-8.5Z" transform="translate(-367.452 -347.755)" fill="#ffad1b"/>
    <path d="M420.783,147.642V124.906H410.177v22.736a1.562,1.562,0,0,0,1.562,1.562h7.481A1.562,1.562,0,0,0,420.783,147.642Z" transform="translate(-367.453 -111.896)" fill="#ffad1b"/>
</svg>
