<svg xmlns="http://www.w3.org/2000/svg" width="133.985" height="140" viewBox="0 0 133.985 140">
    <g id="smartphone" transform="translate(-10.999)">
        <path id="Контур_392" data-name="Контур 392" d="M124.015,137.668a66.99,66.99,0,1,0-46.024,18.315,67.671,67.671,0,0,0,8.558-.542Z" transform="translate(0 -15.983)" fill="#816ae2"/>
        <path id="Контур_393" data-name="Контур 393" d="M230.916,173.469a19.288,19.288,0,0,1-.613-6.638l1.094-10.3a35.666,35.666,0,0,0-3.314-18.765c-7.4-15.043-5.7-16.134-5.928-31.064a5.522,5.522,0,0,0-11.045,0c0,60.712.113,56.257-.261,58.037v7.95A12.161,12.161,0,0,1,198.7,184.832H168.473a42.9,42.9,0,0,0,18.37,14.578l.137.057c5.7,2.406,12.057,7.207,13.12,13.164l.1.425a66.768,66.768,0,0,0,38.79-18.4Z" transform="translate(-114.415 -73.51)" fill="#f9ba8f"/>
        <path id="Контур_394" data-name="Контур 394" d="M60.33,93.21l-1.682-1.558a6.427,6.427,0,1,0-8.736,9.429l10.418,9.653Z" transform="translate(-26.783 -65.352)" fill="#f9ba8f"/>
        <path id="Контур_395" data-name="Контур 395" d="M53.33,98.147a6.428,6.428,0,0,1-1.988-5.589A6.365,6.365,0,0,0,49.566,93.9a6.446,6.446,0,0,0,.346,9.082l10.418,9.653v-8Z" transform="translate(-26.783 -67.249)" fill="#fcad6d"/>
        <g id="Сгруппировать_524" data-name="Сгруппировать 524" transform="translate(76.645 101.278)">
            <path id="Контур_396" data-name="Контур 396" d="M291.436,370.388a32.553,32.553,0,0,1-40.359,26.776c4.332,2.649,8.229,6.52,9.04,11.066l.1.426a66.769,66.769,0,0,0,38.79-18.4Z" transform="translate(-251.077 -370.388)" fill="#fd995b"/>
        </g>
        <g id="Сгруппировать_525" data-name="Сгруппировать 525" transform="translate(33.308)">
            <path id="Контур_397" data-name="Контур 397" d="M146.463,111.583H102.1a9.524,9.524,0,0,1-9.513-9.514V9.514A9.524,9.524,0,0,1,102.1,0h44.361a9.524,9.524,0,0,1,9.513,9.514V102.07a9.524,9.524,0,0,1-9.513,9.513Z" transform="translate(-92.588)" fill="#2a428c"/>
        </g>
        <path id="Контур_398" data-name="Контур 398" d="M121.343,105.664c-3.323-3.323,0-6.578,0-6.578l-.314-30.434c-4.246-4.246.314-8.145.314-8.145s3.19-26.22-.037-30.452,1.165-7.089,1.165-7.089V15.92c-5.982,0-6.147-5.12-6.147-5.12a2.677,2.677,0,0,1,0-3.983V3.529A2.478,2.478,0,0,1,115.375,0H102.1a9.524,9.524,0,0,0-9.513,9.513v92.556a9.524,9.524,0,0,0,9.513,9.514h19.242C118.36,108.6,121.343,105.664,121.343,105.664Z" transform="translate(-59.28 0)" fill="#142766"/>
        <g id="Сгруппировать_526" data-name="Сгруппировать 526" transform="translate(55.4 3.529)">
            <path id="Контур_399" data-name="Контур 399" d="M175.974,16.2h-.95a1.644,1.644,0,1,1,0-3.288h.95a1.644,1.644,0,1,1,0,3.288Z" transform="translate(-173.38 -12.907)" fill="#3c58a0"/>
        </g>
        <g id="Сгруппировать_527" data-name="Сгруппировать 527" transform="translate(61.961 3.529)">
            <path id="Контур_400" data-name="Контур 400" d="M208.148,16.2H199.02a1.644,1.644,0,1,1,0-3.288h9.128a1.644,1.644,0,0,1,0,3.288Z" transform="translate(-197.376 -12.907)" fill="#3c58a0"/>
        </g>
        <path id="Контур_401" data-name="Контур 401" d="M162.19,21.646h-6.667a2.25,2.25,0,0,0-2.25,2.25,2.638,2.638,0,0,1-2.631,2.631H129.377a2.638,2.638,0,0,1-2.631-2.631,2.251,2.251,0,0,0-2.25-2.25h-6.667a3.6,3.6,0,0,0-3.595,3.595V117.8a3.6,3.6,0,0,0,3.595,3.595H162.19a3.6,3.6,0,0,0,3.595-3.595V25.241A3.6,3.6,0,0,0,162.19,21.646Z" transform="translate(-75.007 -15.727)" fill="#e9efff"/>
        <path id="Контур_402" data-name="Контур 402" d="M137.07,114.814l-.314-30.434c-4.246-4.246.314-8.145.314-8.145s3.19-26.22-.037-30.452,1.165-7.089,1.165-7.089V31.648c-5.982,0-6.147-5.12-6.147-5.12h-2.674a2.638,2.638,0,0,1-2.631-2.631,2.251,2.251,0,0,0-2.25-2.25h-6.667a3.6,3.6,0,0,0-3.595,3.595V117.8a3.6,3.6,0,0,0,3.595,3.595H137.07C133.748,118.069,137.07,114.814,137.07,114.814Z" transform="translate(-75.007 -15.727)" fill="#bec8f7"/>
        <path id="Контур_403" data-name="Контур 403" d="M76.666,177.485a5.631,5.631,0,0,1-7.958.3l-9.433-8.74a5.631,5.631,0,0,1,7.655-8.261l9.433,8.74A5.631,5.631,0,0,1,76.666,177.485Z" transform="translate(-33.765 -115.731)" fill="#f9ba8f"/>
        <path id="Контур_404" data-name="Контур 404" d="M72.588,174.421l-9.433-8.74a5.629,5.629,0,0,1-1.619-5.561,5.623,5.623,0,0,0-2.262,9.534l9.433,8.74a5.63,5.63,0,0,0,9.273-2.7,5.623,5.623,0,0,1-5.393-1.273Z" transform="translate(-33.765 -116.337)" fill="#fcad6d"/>
        <g id="Сгруппировать_528" data-name="Сгруппировать 528" transform="translate(23.706 74.275)">
            <path id="Контур_405" data-name="Контур 405" d="M76.666,289.834a5.631,5.631,0,0,1-7.958.3l-9.433-8.74a5.631,5.631,0,1,1,7.655-8.261l9.433,8.74A5.631,5.631,0,0,1,76.666,289.834Z" transform="translate(-57.471 -271.635)" fill="#f9ba8f"/>
        </g>
        <path id="Контур_406" data-name="Контур 406" d="M72.588,286.769l-9.433-8.74a5.629,5.629,0,0,1-1.619-5.561A5.623,5.623,0,0,0,59.275,282l9.433,8.74a5.63,5.63,0,0,0,9.273-2.7A5.622,5.622,0,0,1,72.588,286.769Z" transform="translate(-33.765 -197.965)" fill="#fcad6d"/>
        <path id="Контур_407" data-name="Контур 407" d="M76.666,233.66a5.631,5.631,0,0,1-7.958.3l-9.433-8.74a5.631,5.631,0,0,1,7.655-8.261l9.433,8.74A5.631,5.631,0,0,1,76.666,233.66Z" transform="translate(-33.765 -156.546)" fill="#f9ba8f"/>
        <path id="Контур_408" data-name="Контур 408" d="M72.588,230.6l-9.433-8.74a5.629,5.629,0,0,1-1.619-5.561,5.623,5.623,0,0,0-2.262,9.534l9.433,8.74a5.63,5.63,0,0,0,9.273-2.7A5.622,5.622,0,0,1,72.588,230.6Z" transform="translate(-33.765 -157.151)" fill="#fcad6d"/>
        <path id="Контур_411" data-name="Контур 411" d="M408.14,86.887c-3.636,4.625-6.918,11.271-4.295,18.523,4.922,13.6,12.76,25.154,9.114,45.264-1.654,9.125,3.774,12.95,10.2,14.407A67.019,67.019,0,0,0,408.14,86.887Z" transform="translate(-284.739 -63.129)" fill="#9181f2"/>
        <g id="Сгруппировать_529" data-name="Сгруппировать 529" transform="translate(43.583 17.382)">
            <path id="Контур_409" data-name="Контур 409" d="M181.258,109.919H143.089a2.335,2.335,0,0,0-2.335,2.335v28.684l10.565-14.924a4.484,4.484,0,0,1,7.32,0l6.822,9.636a.82.82,0,0,0,1.338,0l1.391-1.965a4.148,4.148,0,0,1,6.77,0l7.746,10.942a2.33,2.33,0,0,0,.888-1.83V112.254A2.335,2.335,0,0,0,181.258,109.919Z" transform="translate(-140.754 -109.919)" fill="#bebebe"/>
            <circle id="Эллипс_24" data-name="Эллипс 24" cx="3.751" cy="3.751" r="3.751" transform="translate(23.071 14.429) rotate(-76.7)" fill="#bebebe"/>
            <path id="Контур_412" data-name="Контур 412" d="M154.506,113.02c0-2.558,2.762-3.031,4.225-3.1H143.088a2.335,2.335,0,0,0-2.335,2.335v28.684l10.565-14.924a4.444,4.444,0,0,1,3.188-1.866C154.506,119.07,154.506,114.415,154.506,113.02Z" transform="translate(-140.753 -109.918)" fill="#bebebe"/>
            <path id="Контур_414" data-name="Контур 414" d="M174.959,163.3a4.148,4.148,0,0,0-6.77,0l-1.391,1.965a.82.82,0,0,1-1.338,0l-6.822-9.636a4.484,4.484,0,0,0-7.32,0l-10.565,14.924v2.206a2.335,2.335,0,0,0,2.335,2.335h38.169a2.324,2.324,0,0,0,1.6-.637Z" transform="translate(-140.754 -139.881)" fill="#bebebe"/>
            <path id="Контур_416" data-name="Контур 416" d="M154.507,170.287V153.821a4.442,4.442,0,0,0-3.188,1.866l-10.565,14.924v2.207a2.335,2.335,0,0,0,2.335,2.335h15.686A5.148,5.148,0,0,1,154.507,170.287Z" transform="translate(-140.754 -139.939)" fill="#bebebe"/>
        </g>
        <text id="_" data-name="?" transform="translate(61.585 35.523)" fill="#fff" font-size="9" font-family="Roboto-Bold, Roboto" font-weight="700"><tspan x="0" y="0">?</tspan></text>
        <circle id="Эллипс_29" data-name="Эллипс 29" cx="3.244" cy="3.244" r="3.244" transform="translate(45.145 59.611)" fill="#3588ea"/>
        <circle id="Эллипс_30" data-name="Эллипс 30" cx="3.244" cy="3.244" r="3.244" transform="translate(55.473 59.611)" fill="#3588ea"/>
        <circle id="Эллипс_31" data-name="Эллипс 31" cx="3.244" cy="3.244" r="3.244" transform="translate(65.801 59.611)" fill="#3588ea"/>
        <circle id="Эллипс_32" data-name="Эллипс 32" cx="3.244" cy="3.244" r="3.244" transform="translate(76.129 59.611)" fill="#3588ea"/>
        <circle id="Эллипс_33" data-name="Эллипс 33" cx="3.244" cy="3.244" r="3.244" transform="translate(45.146 67.787)" fill="#3588ea"/>
        <circle id="Эллипс_34" data-name="Эллипс 34" cx="3.244" cy="3.244" r="3.244" transform="translate(55.473 67.787)" fill="#3588ea"/>
        <circle id="Эллипс_35" data-name="Эллипс 35" cx="3.244" cy="3.244" r="3.244" transform="translate(65.801 67.787)" fill="#3588ea"/>
        <circle id="Эллипс_36" data-name="Эллипс 36" cx="3.244" cy="3.244" r="3.244" transform="translate(76.129 67.787)" fill="#3588ea"/>
        <circle id="Эллипс_37" data-name="Эллипс 37" cx="3.244" cy="3.244" r="3.244" transform="translate(45.146 75.963)" fill="#3588ea"/>
        <circle id="Эллипс_38" data-name="Эллипс 38" cx="3.244" cy="3.244" r="3.244" transform="translate(55.473 75.963)" fill="#3588ea"/>
        <circle id="Эллипс_39" data-name="Эллипс 39" cx="3.244" cy="3.244" r="3.244" transform="translate(65.801 75.963)" fill="#3588ea"/>
        <circle id="Эллипс_40" data-name="Эллипс 40" cx="3.244" cy="3.244" r="3.244" transform="translate(76.129 75.963)" fill="#3588ea"/>
        <circle id="Эллипс_41" data-name="Эллипс 41" cx="3.244" cy="3.244" r="3.244" transform="translate(45.146 84.139)" fill="#3588ea"/>
        <circle id="Эллипс_42" data-name="Эллипс 42" cx="3.244" cy="3.244" r="3.244" transform="translate(55.473 84.139)" fill="#3588ea"/>
        <circle id="Эллипс_43" data-name="Эллипс 43" cx="3.244" cy="3.244" r="3.244" transform="translate(65.801 84.139)" fill="#3588ea"/>
        <circle id="Эллипс_44" data-name="Эллипс 44" cx="3.244" cy="3.244" r="3.244" transform="translate(76.129 84.139)" fill="#3588ea"/>
    </g>
</svg>
