<svg xmlns="http://www.w3.org/2000/svg" width="133.984" height="140" viewBox="0 0 133.984 140">
    <g id="smartphone_1_" data-name="smartphone (1)" transform="translate(-0.001)">
        <path id="Контур_417" data-name="Контур 417" d="M71.488,155.831l37.967-15.023a66.992,66.992,0,1,0-42.462,15.176c1.511,0,3.009-.054,4.495-.153Zm0,0" transform="translate(0 -15.984)" fill="#27a3ff"/>
        <path id="Контур_418" data-name="Контур 418" d="M221.545,171.874a35.665,35.665,0,0,0-3.313-18.766c-7.395-15.042-5.7-16.134-5.928-31.063a5.522,5.522,0,1,0-11.044,0V177.57a12.245,12.245,0,0,1-.262,2.512v7.949a12.162,12.162,0,0,1-12.148,12.149H158.621a42.892,42.892,0,0,0,18.369,14.578l.138.057a18.01,18.01,0,0,1,9.607,9.694A66.677,66.677,0,0,0,224.7,209.486l-4.115-15.119a19.3,19.3,0,0,1-.612-6.638Zm0,0" transform="translate(-115.247 -84.661)" fill="#f9cfa9"/>
        <path id="Контур_419" data-name="Контур 419" d="M50.477,108.558,48.795,107a6.427,6.427,0,0,0-8.736,9.428l10.418,9.654Zm0,0" transform="translate(-27.615 -76.502)" fill="#f9cfa9"/>
        <path id="Контур_420" data-name="Контур 420" d="M138.052,0H90.825a8.32,8.32,0,0,0-8.31,8.311v99.526a8.32,8.32,0,0,0,8.31,8.311h47.227a8.321,8.321,0,0,0,8.311-8.311V8.311A8.321,8.321,0,0,0,138.052,0Zm0,0" transform="translate(-59.952)" fill="#3d4ec6"/>
        <path id="Контур_421" data-name="Контур 421" d="M98.514,6.163A4.2,4.2,0,0,1,100.267,0H90.823a8.311,8.311,0,0,0-8.311,8.311v99.526a8.311,8.311,0,0,0,8.311,8.31h10.04V13.446a13.087,13.087,0,0,0-2.349-7.283Zm0,0" transform="translate(-59.949 0)" fill="#2b3894"/>
        <path id="Контур_432" data-name="Контур 432" d="M150.734,17.6h-7.019a1.2,1.2,0,0,0-1.2,1.2,2.9,2.9,0,0,1-2.886,2.887H114.613a2.9,2.9,0,0,1-2.887-2.887,1.2,1.2,0,0,0-1.2-1.2h-7.019a3.5,3.5,0,0,0-3.5,3.5V123.75h54.226V21.1a3.5,3.5,0,0,0-3.5-3.5Zm0,0" transform="translate(-72.662 -12.786)" fill="#3588ea"/>
        <path id="Контур_436" data-name="Контур 436" d="M66.812,192.832a5.633,5.633,0,0,1-7.959.3l-9.433-8.74a5.632,5.632,0,0,1,7.655-8.262l9.433,8.74A5.633,5.633,0,0,1,66.812,192.832Zm0,0" transform="translate(-34.596 -126.881)" fill="#f9cfa9"/>
        <path id="Контур_437" data-name="Контур 437" d="M84.446,201.04l-4.487-4.157a6.611,6.611,0,0,1-7.654,8.262l4.486,4.157a5.632,5.632,0,0,0,7.655-8.262Zm0,0" transform="translate(-52.533 -143.048)" fill="#fbbc8d"/>
        <path id="Контур_438" data-name="Контур 438" d="M66.812,249.007a5.632,5.632,0,0,1-7.959.3l-9.433-8.74a5.631,5.631,0,1,1,7.655-8.261l9.433,8.74A5.631,5.631,0,0,1,66.812,249.007Zm0,0" transform="translate(-34.596 -167.697)" fill="#f9cfa9"/>
        <path id="Контур_439" data-name="Контур 439" d="M66.812,305.18a5.632,5.632,0,0,1-7.959.3l-9.433-8.74a5.632,5.632,0,1,1,7.655-8.262l9.433,8.74A5.633,5.633,0,0,1,66.812,305.18Zm0,0" transform="translate(-34.596 -208.509)" fill="#f9cfa9"/>
        <path id="Контур_440" data-name="Контур 440" d="M251.534,392.508a19.425,19.425,0,0,1-.593-3.274,44.939,44.939,0,0,1-49.726,20.142,42.843,42.843,0,0,0,6.723,3.523l.138.058a18,18,0,0,1,9.607,9.694,66.678,66.678,0,0,0,37.967-15.023Zm0,0" transform="translate(-146.195 -282.803)" fill="#fbbc8d"/>
        <path id="Контур_441" data-name="Контур 441" d="M84.446,257.216l-4.487-4.157a6.611,6.611,0,0,1-7.654,8.262l4.486,4.156a5.631,5.631,0,1,0,7.655-8.261Zm0,0" transform="translate(-52.533 -183.863)" fill="#fbbc8d"/>
        <path id="Контур_442" data-name="Контур 442" d="M84.446,313.388l-4.487-4.157a6.611,6.611,0,0,1-7.654,8.262l4.486,4.157a5.632,5.632,0,1,0,7.655-8.262Zm0,0" transform="translate(-52.533 -224.676)" fill="#fbbc8d"/>
        <text id="Game_PIN" data-name="Game PIN" transform="translate(33.717 37.795)" fill="#fff" font-size="9" font-family="Roboto-Bold, Roboto" font-weight="700"><tspan x="0" y="0">Game PIN</tspan></text>
    </g>
</svg>
