<svg id="tap" xmlns="http://www.w3.org/2000/svg" width="134.478" height="140.515" viewBox="0 0 134.478 140.515">
    <circle id="Эллипс_45" data-name="Эллипс 45" cx="67.239" cy="67.239" r="67.239" transform="translate(0 6.038)" fill="#2b3894"/>
    <path id="Контур_444" data-name="Контур 444" d="M134.437,0H26.358a8.222,8.222,0,0,0-8.222,8.223V98.705a8.222,8.222,0,0,0,8.222,8.223h108.08a8.223,8.223,0,0,0,8.223-8.223V8.223A8.223,8.223,0,0,0,134.437,0Zm0,0" transform="translate(-13.159)" fill="#e6f7fe"/>
    <path id="Контур_445" data-name="Контур 445" d="M40.215,102.97A5.166,5.166,0,0,1,45.3,97.806V46.592a6.506,6.506,0,0,1,0-12.93V9.221A5.163,5.163,0,0,1,42.186,0H26.358a8.222,8.222,0,0,0-8.222,8.223V98.705a8.222,8.222,0,0,0,8.222,8.223H42.064a5.155,5.155,0,0,1-1.848-3.958Zm0,0" transform="translate(-13.159 0)" fill="#d5f1fe"/>
    <path id="Контур_446" data-name="Контур 446" d="M94.073,166.1H50.711c-1.445,0-2.617.574-2.617,1.282v23.462c0,.709,1.172,1.282,2.617,1.282H94.073c1.445,0,2.617-.574,2.617-1.282V167.38C96.689,166.672,95.518,166.1,94.073,166.1Zm0,0" transform="translate(-34.895 -93.419)" fill="#f948b4"/>
    <path id="Контур_447" data-name="Контур 447" d="M61.634,190.842V167.38c0-.708,1.172-1.282,2.616-1.282H50.711c-1.445,0-2.617.574-2.617,1.282v23.462c0,.709,1.172,1.282,2.617,1.282H64.25C62.8,192.124,61.634,191.551,61.634,190.842Zm0,0" transform="translate(-34.895 -93.419)" fill="#e00e8b"/>
    <path id="Контур_450" data-name="Контур 450" d="M299.158,29.961H266.793c-1.079,0-1.953.586-1.953,1.308V55.214c0,.723.875,1.308,1.953,1.308h32.365c1.079,0,1.953-.586,1.953-1.308V31.269c0-.723-.875-1.308-1.953-1.308Zm0,0" transform="translate(-179.833 -21.738)" fill="#27a3ff"/>
    <path id="Контур_451" data-name="Контур 451" d="M94.073,29.961H50.711a2.617,2.617,0,0,0-2.617,2.617V53.905a2.617,2.617,0,0,0,2.617,2.617H94.073a2.617,2.617,0,0,0,2.617-2.617V32.578A2.617,2.617,0,0,0,94.073,29.961Zm0,0" transform="translate(-34.895 -21.738)" fill="#fecd0a"/>
    <path id="Контур_452" data-name="Контур 452" d="M310.818,262.879H267.456a2.616,2.616,0,0,0-2.616,2.616v21.327a2.616,2.616,0,0,0,2.616,2.617h43.362a2.617,2.617,0,0,0,2.617-2.617V265.495A2.616,2.616,0,0,0,310.818,262.879Zm0,0" transform="translate(-192.156 -190.733)" fill="#a2ec00"/>
    <path id="Контур_453" data-name="Контур 453" d="M278.379,55.213V31.269c0-.723,1.172-1.308,2.617-1.308H267.457c-1.445,0-2.617.586-2.617,1.308V55.213c0,.723,1.172,1.308,2.617,1.308H281C279.551,56.522,278.379,55.936,278.379,55.213Zm0,0" transform="translate(-192.156 -21.738)" fill="#0080f4"/>
    <path id="Контур_454" data-name="Контур 454" d="M61.634,53.905V32.578a2.617,2.617,0,0,1,2.616-2.617H50.711a2.617,2.617,0,0,0-2.617,2.617V53.905a2.617,2.617,0,0,0,2.617,2.617H64.25A2.616,2.616,0,0,1,61.634,53.905Zm0,0" transform="translate(-34.895 -21.738)" fill="#fca60d"/>
    <path id="Контур_455" data-name="Контур 455" d="M278.379,286.822V265.495A2.616,2.616,0,0,1,281,262.879H267.457a2.616,2.616,0,0,0-2.617,2.616v21.327a2.616,2.616,0,0,0,2.617,2.617H281A2.616,2.616,0,0,1,278.379,286.822Zm0,0" transform="translate(-192.156 -190.733)" fill="#00c82f"/>
    <path id="Контур_456" data-name="Контур 456" d="M94.073,166.1H50.711c-1.445,0-2.617.574-2.617,1.282v23.462c0,.709,1.172,1.282,2.617,1.282H94.073c1.445,0,2.617-.574,2.617-1.282V167.38C96.689,166.672,95.518,166.1,94.073,166.1Zm0,0" transform="translate(-34.895 -125.381)" fill="#ccc"/>
    <path id="Контур_457" data-name="Контур 457" d="M61.634,190.842V167.38c0-.708,1.172-1.282,2.616-1.282H50.711c-1.445,0-2.617.574-2.617,1.282v23.462c0,.709,1.172,1.282,2.617,1.282H64.25C62.8,192.124,61.634,191.551,61.634,190.842Zm0,0" transform="translate(-34.895 -125.38)" fill="#bebebe"/>
    <path id="Контур_458" data-name="Контур 458" d="M310.818,262.879H267.456a2.616,2.616,0,0,0-2.616,2.616v21.327a2.616,2.616,0,0,0,2.616,2.617h43.362a2.617,2.617,0,0,0,2.617-2.617V265.495A2.616,2.616,0,0,0,310.818,262.879Zm0,0" transform="translate(-192.156 -222.695)" fill="#ff5e5e"/>
    <path id="Контур_459" data-name="Контур 459" d="M278.379,286.822V265.495A2.616,2.616,0,0,1,281,262.879H267.457a2.616,2.616,0,0,0-2.617,2.616v21.327a2.616,2.616,0,0,0,2.617,2.617H281A2.616,2.616,0,0,1,278.379,286.822Zm0,0" transform="translate(-192.156 -222.695)" fill="#ff2020"/>
    <text id="_1234_" data-name="1234*" transform="translate(86.478 118)" fill="#fff" font-size="12" font-family="Roboto-Regular, Roboto"><tspan x="0" y="0">1234*</tspan></text>
</svg>
